/* XPM */
static char *_1489_6ca6a5ab146274d8c123ebc536f92271e201abba55b68c767b0764a8a169f8eb[] = {
/* columns rows colors chars-per-pixel */
"64 64 9 1 ",
"  c #343434",
". c #3C3C3C",
"X c #434343",
"o c gray28",
"O c #4E4E4E",
"+ c #515151",
"@ c #535353",
"# c #565656",
"$ c #5B5B5B",
/* pixels */
"$$$$$$$$$$$$$$$$$$$$$$$$$$$$$$$X$$$$$$$$$$$$$$$$$$$$$$$$$$$$$$$X",
"$$#@@@@@@@@@@@@@@@@@@@@@@@@@@@X $$#@@@@@@@@@@@@@@@@@@@@@@@@@@@X ",
"$$@OOOOOOOOOOOOOOOOOOOOOOOOOOo  $$@OOOOOOOOOOOOOOOOOOOOOOOOOOo  ",
"$$@OOOOOOOOOOOOOOOOOOOOOOOOOOX  $$@OOOOOOOOOOOOOOOOOOOOOOOOOOX  ",
"$$@OOOOOOOOOOOOOOOOOOOOOOOOOOX  $$@OOOOOOOOOOOOOOOOOOOOOOOOOOX  ",
"$$@OOOOOOOOOOOOOOOOOOOOOOOOOOX  $$@OOOOOOOOOOOOOOOOOOOOOOOOOOX  ",
"$$@OOOOOOOOOOOOOOOOOOOOOOOOOOX  $$@OOOOOOOOOOOOOOOOOOOOOOOOOOX  ",
"$$@OOOOOOOOOOOOOOOOOOOOOOOOOOX  $$@OOOOOOOOOOOOOOOOOOOOOOOOOOX  ",
"$$@OOOOOOOOOOOOOOOOOOOOOOOOOOX  $$@OOOOOOOOOOOOOOOOOOOOOOOOOOX  ",
"$$@OOOOOOOOOOOOOOOOOOOOOOOOOOX  $$@OOOOOOOOOOOOOOOOOOOOOOOOOOX  ",
"$$@OOOOOOOOOOOOOOOOOOOOOOOOOOX  $$@OOOOOOOOOOOOOOOOOOOOOOOOOOX  ",
"$$@OOOOOOOOOOOOOOOOOOOOOOOOOOX  $$@OOOOOOOOOOOOOOOOOOOOOOOOOOX  ",
"$$@OOOOOOOOOOOOOOOOOOOOOOOOOOX  $$@OOOOOOOOOOOOOOOOOOOOOOOOOOX  ",
"$$@OOOOOOOOOOOOOOOOOOOOOOOOOOX  $$@OOOOOOOOOOOOOOOOOOOOOOOOOOX  ",
"$$@OOOOOOOOOOOOOOOOOOOOOOOOOOX  $$@OOOOOOOOOOOOOOOOOOOOOOOOOOX  ",
"$$@OOOOOOOOOOOOOOOOOOOOOOOOOOX  $$@OOOOOOOOOOOOOOOOOOOOOOOOOOX  ",
"$$@OOOOOOOOOOOOOOOOOOOOOOOOOOX  $$@OOOOOOOOOOOOOOOOOOOOOOOOOOX  ",
"$$@OOOOOOOOOOOOOOOOOOOOOOOOOOX  $$@OOOOOOOOOOOOOOOOOOOOOOOOOOX  ",
"$$@OOOOOOOOOOOOOOOOOOOOOOOOOOX  $$@OOOOOOOOOOOOOOOOOOOOOOOOOOX  ",
"$$@OOOOOOOOOOOOOOOOOOOOOOOOOOX  $$@OOOOOOOOOOOOOOOOOOOOOOOOOOX  ",
"$$@OOOOOOOOOOOOOOOOOOOOOOOOOOX  $$@OOOOOOOOOOOOOOOOOOOOOOOOOOX  ",
"$$@OOOOOOOOOOOOOOOOOOOOOOOOOOX  $$@OOOOOOOOOOOOOOOOOOOOOOOOOOX  ",
"$$@OOOOOOOOOOOOOOOOOOOOOOOOOOX  $$@OOOOOOOOOOOOOOOOOOOOOOOOOOX  ",
"$$@OOOOOOOOOOOOOOOOOOOOOOOOOOX  $$@OOOOOOOOOOOOOOOOOOOOOOOOOOX  ",
"$$@OOOOOOOOOOOOOOOOOOOOOOOOOOX  $$@OOOOOOOOOOOOOOOOOOOOOOOOOOX  ",
"$$@OOOOOOOOOOOOOOOOOOOOOOOOOOX  $$@OOOOOOOOOOOOOOOOOOOOOOOOOOX  ",
"$$@OOOOOOOOOOOOOOOOOOOOOOOOOOX  $$@OOOOOOOOOOOOOOOOOOOOOOOOOOX  ",
"$$@OOOOOOOOOOOOOOOOOOOOOOOOOOX  $$@OOOOOOOOOOOOOOOOOOOOOOOOOOX  ",
"$$@OOOOOOOOOOOOOOOOOOOOOOOOOOX  $$@OOOOOOOOOOOOOOOOOOOOOOOOOOX  ",
"$$+XXXXXXXXXXXXXXXXXXXXXXXXXX.  $$+XXXXXXXXXXXXXXXXXXXXXXXXXX.  ",
"$X                              $X                              ",
"X                               X                               ",
"$$$$$$$$$$$$$$$$$$$$$$$$$$$$$$$X$$$$$$$$$$$$$$$$$$$$$$$$$$$$$$$X",
"$$#@@@@@@@@@@@@@@@@@@@@@@@@@@@X $$#@@@@@@@@@@@@@@@@@@@@@@@@@@@X ",
"$$@OOOOOOOOOOOOOOOOOOOOOOOOOOo  $$@OOOOOOOOOOOOOOOOOOOOOOOOOOo  ",
"$$@OOOOOOOOOOOOOOOOOOOOOOOOOOX  $$@OOOOOOOOOOOOOOOOOOOOOOOOOOX  ",
"$$@OOOOOOOOOOOOOOOOOOOOOOOOOOX  $$@OOOOOOOOOOOOOOOOOOOOOOOOOOX  ",
"$$@OOOOOOOOOOOOOOOOOOOOOOOOOOX  $$@OOOOOOOOOOOOOOOOOOOOOOOOOOX  ",
"$$@OOOOOOOOOOOOOOOOOOOOOOOOOOX  $$@OOOOOOOOOOOOOOOOOOOOOOOOOOX  ",
"$$@OOOOOOOOOOOOOOOOOOOOOOOOOOX  $$@OOOOOOOOOOOOOOOOOOOOOOOOOOX  ",
"$$@OOOOOOOOOOOOOOOOOOOOOOOOOOX  $$@OOOOOOOOOOOOOOOOOOOOOOOOOOX  ",
"$$@OOOOOOOOOOOOOOOOOOOOOOOOOOX  $$@OOOOOOOOOOOOOOOOOOOOOOOOOOX  ",
"$$@OOOOOOOOOOOOOOOOOOOOOOOOOOX  $$@OOOOOOOOOOOOOOOOOOOOOOOOOOX  ",
"$$@OOOOOOOOOOOOOOOOOOOOOOOOOOX  $$@OOOOOOOOOOOOOOOOOOOOOOOOOOX  ",
"$$@OOOOOOOOOOOOOOOOOOOOOOOOOOX  $$@OOOOOOOOOOOOOOOOOOOOOOOOOOX  ",
"$$@OOOOOOOOOOOOOOOOOOOOOOOOOOX  $$@OOOOOOOOOOOOOOOOOOOOOOOOOOX  ",
"$$@OOOOOOOOOOOOOOOOOOOOOOOOOOX  $$@OOOOOOOOOOOOOOOOOOOOOOOOOOX  ",
"$$@OOOOOOOOOOOOOOOOOOOOOOOOOOX  $$@OOOOOOOOOOOOOOOOOOOOOOOOOOX  ",
"$$@OOOOOOOOOOOOOOOOOOOOOOOOOOX  $$@OOOOOOOOOOOOOOOOOOOOOOOOOOX  ",
"$$@OOOOOOOOOOOOOOOOOOOOOOOOOOX  $$@OOOOOOOOOOOOOOOOOOOOOOOOOOX  ",
"$$@OOOOOOOOOOOOOOOOOOOOOOOOOOX  $$@OOOOOOOOOOOOOOOOOOOOOOOOOOX  ",
"$$@OOOOOOOOOOOOOOOOOOOOOOOOOOX  $$@OOOOOOOOOOOOOOOOOOOOOOOOOOX  ",
"$$@OOOOOOOOOOOOOOOOOOOOOOOOOOX  $$@OOOOOOOOOOOOOOOOOOOOOOOOOOX  ",
"$$@OOOOOOOOOOOOOOOOOOOOOOOOOOX  $$@OOOOOOOOOOOOOOOOOOOOOOOOOOX  ",
"$$@OOOOOOOOOOOOOOOOOOOOOOOOOOX  $$@OOOOOOOOOOOOOOOOOOOOOOOOOOX  ",
"$$@OOOOOOOOOOOOOOOOOOOOOOOOOOX  $$@OOOOOOOOOOOOOOOOOOOOOOOOOOX  ",
"$$@OOOOOOOOOOOOOOOOOOOOOOOOOOX  $$@OOOOOOOOOOOOOOOOOOOOOOOOOOX  ",
"$$@OOOOOOOOOOOOOOOOOOOOOOOOOOX  $$@OOOOOOOOOOOOOOOOOOOOOOOOOOX  ",
"$$@OOOOOOOOOOOOOOOOOOOOOOOOOOX  $$@OOOOOOOOOOOOOOOOOOOOOOOOOOX  ",
"$$@OOOOOOOOOOOOOOOOOOOOOOOOOOX  $$@OOOOOOOOOOOOOOOOOOOOOOOOOOX  ",
"$$@OOOOOOOOOOOOOOOOOOOOOOOOOOX  $$@OOOOOOOOOOOOOOOOOOOOOOOOOOX  ",
"$$+XXXXXXXXXXXXXXXXXXXXXXXXXX.  $$+XXXXXXXXXXXXXXXXXXXXXXXXXX.  ",
"$X                              $X                              ",
"X                               X                               "
};
