/* XPM */
static char *_0494bd289b1473ac27b141e4d9bfe81nKurNVbx1GJYwJtZ[] = {
/* columns rows colors chars-per-pixel */
"64 64 19 1 ",
"  c #000008",
". c #102040",
"X c #19315C",
"o c #1B3767",
"O c #1E386D",
"+ c #334365",
"@ c #23437F",
"# c #2B5397",
"$ c #335FB3",
"% c #43649E",
"& c #516B9D",
"* c #486BAC",
"= c #4D75BA",
"- c #5B7FBE",
"; c #4377E7",
": c #5E83C7",
"> c #6189CF",
", c #5B8AEA",
"< c #7FA7EF",
/* pixels */
"$$$$$$$$$$$$$OOO        +++++&&&&&&+++++        OOO$$$$$$$$$$$$o",
"$$###########XXX    ;;;;,,,<<<<<<<<<,,,,;;;;    XXX###########oo",
"$$###########XXX  #@@@@@*****::::::*****@@@@@#  XXX###########oo",
"$$###########XXX  ######=====>>>>>>=====######  XXX###########oo",
"$$###########XXX  ######=====>>>>>>=====######  XXX###########oo",
"$$###########XXX  #@@@@@*****::::::*****@@@@@#  XXX###########oo",
"$$###########XXX    oooo%%%%%------%%%%%oooo    XXX###########oo",
"$$###########XXX        +++++&&&&&&+++++        XXX###########oo",
"$$###########XXX        +++++&&&&&&+++++        XXX###########oo",
"$$###########XXX    ;;;;,,,<<<<<<<<<,,,,;;;;    XXX###########oo",
"$$###########XXX  #@@@@@*****::::::*****@@@@@#  XXX###########oo",
"$$###########XXX  ######=====>>>>>>=====######  XXX###########oo",
"$$###########XXX  ######=====>>>>>>=====######  XXX###########oo",
"$$###########XXX  #@@@@@*****::::::*****@@@@@#  XXX###########oo",
"$$###########XXX    oooo%%%%%------%%%%%oooo    XXX###########oo",
"$$###########XXX        +++++&&&&&&+++++        XXX###########oo",
"$$###########XXX        +++++&&&&&&+++++        XXX###########oo",
"$$###########XXX    ;;;;,,,<<<<<<<<<,,,,;;;;    XXX###########oo",
"$$###########XXX  #@@@@@*****::::::*****@@@@@#  XXX###########oo",
"$$###########XXX  ######=====>>>>>>=====######  XXX###########oo",
"$$###########XXX  ######=====>>>>>>=====######  XXX###########oo",
"$$###########XXX  #@@@@@*****::::::*****@@@@@#  XXX###########oo",
"$$###########XXX    oooo%%%%%------%%%%%oooo    XXX###########oo",
"$$###########XXX        +++++&&&&&&+++++        XXX###########oo",
"$$###########XXX        +++++&&&&&&+++++        XXX###########oo",
"$$###########XXX    ;;;;,,,<<<<<<<<<,,,,;;;;    XXX###########oo",
"$$###########XXX  #@@@@@*****::::::*****@@@@@#  XXX###########oo",
"$$###########XXX  ######=====>>>>>>=====######  XXX###########oo",
"$$###########XXX  ######=====>>>>>>=====######  XXX###########oo",
"$$###########XXX  #@@@@@*****::::::*****@@@@@#  XXX###########oo",
"$oooooooooooo...    oooo%%%%%------%%%%%oooo    ...ooooooooooooo",
"ooooooooooooo...        +++++&&&&&&+++++        ...ooooooooooooo",
"$$$$$$$$$$$$$OOO        +++++&&&&&&+++++        OOO$$$$$$$$$$$$o",
"$$###########XXX    ;;;;,,,<<<<<<<<<,,,,;;;;    XXX###########oo",
"$$###########XXX  #@@@@@*****::::::*****@@@@@#  XXX###########oo",
"$$###########XXX  ######=====>>>>>>=====######  XXX###########oo",
"$$###########XXX  ######=====>>>>>>=====######  XXX###########oo",
"$$###########XXX  #@@@@@*****::::::*****@@@@@#  XXX###########oo",
"$$###########XXX    oooo%%%%%------%%%%%oooo    XXX###########oo",
"$$###########XXX        +++++&&&&&&+++++        XXX###########oo",
"$$###########XXX        +++++&&&&&&+++++        XXX###########oo",
"$$###########XXX    ;;;;,,,<<<<<<<<<,,,,;;;;    XXX###########oo",
"$$###########XXX  #@@@@@*****::::::*****@@@@@#  XXX###########oo",
"$$###########XXX  ######=====>>>>>>=====######  XXX###########oo",
"$$###########XXX  ######=====>>>>>>=====######  XXX###########oo",
"$$###########XXX  #@@@@@*****::::::*****@@@@@#  XXX###########oo",
"$$###########XXX    oooo%%%%%------%%%%%oooo    XXX###########oo",
"$$###########XXX        +++++&&&&&&+++++        XXX###########oo",
"$$###########XXX        +++++&&&&&&+++++        XXX###########oo",
"$$###########XXX    ;;;;,,,<<<<<<<<<,,,,;;;;    XXX###########oo",
"$$###########XXX  #@@@@@*****::::::*****@@@@@#  XXX###########oo",
"$$###########XXX  ######=====>>>>>>=====######  XXX###########oo",
"$$###########XXX  ######=====>>>>>>=====######  XXX###########oo",
"$$###########XXX  #@@@@@*****::::::*****@@@@@#  XXX###########oo",
"$$###########XXX    oooo%%%%%------%%%%%oooo    XXX###########oo",
"$$###########XXX        +++++&&&&&&+++++        XXX###########oo",
"$$###########XXX        +++++&&&&&&+++++        XXX###########oo",
"$$###########XXX    ;;;;,,,<<<<<<<<<,,,,;;;;    XXX###########oo",
"$$###########XXX  #@@@@@*****::::::*****@@@@@#  XXX###########oo",
"$$###########XXX  ######=====>>>>>>=====######  XXX###########oo",
"$$###########XXX  ######=====>>>>>>=====######  XXX###########oo",
"$$###########XXX  #@@@@@*****::::::*****@@@@@#  XXX###########oo",
"$oooooooooooo...    oooo%%%%%------%%%%%oooo    ...ooooooooooooo",
"ooooooooooooo...        +++++&&&&&&+++++        ...ooooooooooooo"
};
