/* XPM */
static char *_6915073c82d41e1f67419f429bee577Wc5v4ov8q3ipvUAC[] = {
/* columns rows colors chars-per-pixel */
"64 64 7 1 ",
"  c gray20",
". c #464646",
"X c gray31",
"o c #535353",
"O c #5B5B5B",
"+ c gray39",
"@ c #777777",
/* pixels */
"                  OOO@@@@@@@@@@@@@@@@@@@@@@OOO                  ",
" @+oooooooooooo   XXX++++++++++++++++++++++XXX @+oooooooooooo   ",
" @+oooooooooooo   ...oooooooooooooooooooooo... @+oooooooooooo   ",
" @+oooooooooooo   ...oooooooooooooooooooooo... @+oooooooooooo   ",
" @+oooooooooooo   ...oooooooooooooooooooooo... @+oooooooooooo   ",
" @+oooooooooooo   ...oooooooooooooooooooooo... @+oooooooooooo   ",
" @+oooooooooooo   ...oooooooooooooooooooooo... @+oooooooooooo   ",
" @+oooooooooooo   ...oooooooooooooooooooooo... @+oooooooooooo   ",
" @+oooooooooooo   ...oooooooooooooooooooooo... @+oooooooooooo   ",
" @+oooooooooooo   ...oooooooooooooooooooooo... @+oooooooooooo   ",
" @+oooooooooooo   ...oooooooooooooooooooooo... @+oooooooooooo   ",
" @+oooooooooooo   ...oooooooooooooooooooooo... @+oooooooooooo   ",
" @+oooooooooooo   ...oooooooooooooooooooooo... @+oooooooooooo   ",
" @+oooooooooooo   ...oooooooooooooooooooooo... @+oooooooooooo   ",
" @+oooooooooooo                                @+oooooooooooo   ",
" @+oooooooooooo                                @+oooooooooooo   ",
" @+oooooooooooo   OOO@@@@@@@@@@@@@@@@@@@@@@OOO @+oooooooooooo   ",
" @+oooooooooooo   XXX++++++++++++++++++++++XXX @+oooooooooooo   ",
" @+oooooooooooo   ...oooooooooooooooooooooo... @+oooooooooooo   ",
" @+oooooooooooo   ...oooooooooooooooooooooo... @+oooooooooooo   ",
" @+oooooooooooo   ...oooooooooooooooooooooo... @+oooooooooooo   ",
" @+oooooooooooo   ...oooooooooooooooooooooo... @+oooooooooooo   ",
" @+oooooooooooo   ...oooooooooooooooooooooo... @+oooooooooooo   ",
" @+oooooooooooo   ...oooooooooooooooooooooo... @+oooooooooooo   ",
" @+oooooooooooo   ...oooooooooooooooooooooo... @+oooooooooooo   ",
" @+oooooooooooo   ...oooooooooooooooooooooo... @+oooooooooooo   ",
" @+oooooooooooo   ...oooooooooooooooooooooo... @+oooooooooooo   ",
" @+oooooooooooo   ...oooooooooooooooooooooo... @+oooooooooooo   ",
" @+oooooooooooo   ...oooooooooooooooooooooo... @+oooooooooooo   ",
" @+oooooooooooo   ...oooooooooooooooooooooo... @+oooooooooooo   ",
" @+oooooooooooo                                @+oooooooooooo   ",
" @+oooooooooooo                                @+oooooooooooo   ",
" @+oooooooooooo   OOO@@@@@@@@@@@@@@@@@@@@@@OOO @+oooooooooooo   ",
" @+oooooooooooo   XXX++++++++++++++++++++++XXX @+oooooooooooo   ",
" @+oooooooooooo   ...oooooooooooooooooooooo... @+oooooooooooo   ",
" @+oooooooooooo   ...oooooooooooooooooooooo... @+oooooooooooo   ",
" @+oooooooooooo   ...oooooooooooooooooooooo... @+oooooooooooo   ",
" @+oooooooooooo   ...oooooooooooooooooooooo... @+oooooooooooo   ",
" @+oooooooooooo   ...oooooooooooooooooooooo... @+oooooooooooo   ",
" @+oooooooooooo   ...oooooooooooooooooooooo... @+oooooooooooo   ",
" @+oooooooooooo   ...oooooooooooooooooooooo... @+oooooooooooo   ",
" @+oooooooooooo   ...oooooooooooooooooooooo... @+oooooooooooo   ",
" @+oooooooooooo   ...oooooooooooooooooooooo... @+oooooooooooo   ",
" @+oooooooooooo   ...oooooooooooooooooooooo... @+oooooooooooo   ",
" @+oooooooooooo   ...oooooooooooooooooooooo... @+oooooooooooo   ",
" @+oooooooooooo   ...oooooooooooooooooooooo... @+oooooooooooo   ",
" @+oooooooooooo                                @+oooooooooooo   ",
" @+oooooooooooo                                @+oooooooooooo   ",
" @+oooooooooooo   OOO@@@@@@@@@@@@@@@@@@@@@@OOO @+oooooooooooo   ",
" @+oooooooooooo   XXX++++++++++++++++++++++XXX @+oooooooooooo   ",
" @+oooooooooooo   ...oooooooooooooooooooooo... @+oooooooooooo   ",
" @+oooooooooooo   ...oooooooooooooooooooooo... @+oooooooooooo   ",
" @+oooooooooooo   ...oooooooooooooooooooooo... @+oooooooooooo   ",
" @+oooooooooooo   ...oooooooooooooooooooooo... @+oooooooooooo   ",
" @+oooooooooooo   ...oooooooooooooooooooooo... @+oooooooooooo   ",
" @+oooooooooooo   ...oooooooooooooooooooooo... @+oooooooooooo   ",
" @+oooooooooooo   ...oooooooooooooooooooooo... @+oooooooooooo   ",
" @+oooooooooooo   ...oooooooooooooooooooooo... @+oooooooooooo   ",
" @+oooooooooooo   ...oooooooooooooooooooooo... @+oooooooooooo   ",
" @+oooooooooooo   ...oooooooooooooooooooooo... @+oooooooooooo   ",
" @+oooooooooooo   ...oooooooooooooooooooooo... @+oooooooooooo   ",
" @+oooooooooooo   ...oooooooooooooooooooooo... @+oooooooooooo   ",
" @+oooooooooooo                                @+oooooooooooo   ",
"                                                                "
};
