/* XPM */
static char *_1f67b08160c4a559770a3c5806e0bb41KmsDcexZPX58exg[] = {
/* columns rows colors chars-per-pixel */
"64 64 3 1 ",
"  c #343434",
". c #4E4E4E",
"X c #5B5B5B",
/* pixels */
"XXXXXXXXXXXXXXXXXXXXXXXXXXXXXXX XXXXXXXXXXXXXXXXXXXXXXXXXXXXXXX ",
"XXXXXXXXXXXXXXXXXXXXXXXXXXXXXX  XXXXXXXXXXXXXXXXXXXXXXXXXXXXXX  ",
"XXXXXXXXXXXXXXXXXXXXXXXXXXXXX   XXXXXXXXXXXXXXXXXXXXXXXXXXXXX   ",
"XXXXXXXXXXXXXXXXXXXXXXXXXXXX    XXXXXXXXXXXXXXXXXXXXXXXXXXXX    ",
"XXXXXXXXXXXXXXXXXXXXXXXXXXX     XXXXXXXXXXXXXXXXXXXXXXXXXXX     ",
"XXXXXXXXXXXXXXXXXXXXXXXXXX      XXXXXXXXXXXXXXXXXXXXXXXXXX      ",
"XXXXXXXXXXXXXXXXXXXXXXXXX       XXXXXXXXXXXXXXXXXXXXXXXXX       ",
"XXXXXXXXXXXXXXXXXXXXXXXX        XXXXXXXXXXXXXXXXXXXXXXXX        ",
"XXXXXXXX................        XXXXXXXX................        ",
"XXXXXXXX................        XXXXXXXX................        ",
"XXXXXXXX................        XXXXXXXX................        ",
"XXXXXXXX................        XXXXXXXX................        ",
"XXXXXXXX................        XXXXXXXX................        ",
"XXXXXXXX................        XXXXXXXX................        ",
"XXXXXXXX................        XXXXXXXX................        ",
"XXXXXXXX................        XXXXXXXX................        ",
"XXXXXXXX................        XXXXXXXX................        ",
"XXXXXXXX................        XXXXXXXX................        ",
"XXXXXXXX................        XXXXXXXX................        ",
"XXXXXXXX................        XXXXXXXX................        ",
"XXXXXXXX................        XXXXXXXX................        ",
"XXXXXXXX................        XXXXXXXX................        ",
"XXXXXXXX................        XXXXXXXX................        ",
"XXXXXXXX................        XXXXXXXX................        ",
"XXXXXXX                         XXXXXXX                         ",
"XXXXXX                          XXXXXX                          ",
"XXXXX                           XXXXX                           ",
"XXXX                            XXXX                            ",
"XXX                             XXX                             ",
"XX                              XX                              ",
"X                               X                               ",
"                                                                ",
"XXXXXXXXXXXXXXXXXXXXXXXXXXXXXXX XXXXXXXXXXXXXXXXXXXXXXXXXXXXXXX ",
"XXXXXXXXXXXXXXXXXXXXXXXXXXXXXX  XXXXXXXXXXXXXXXXXXXXXXXXXXXXXX  ",
"XXXXXXXXXXXXXXXXXXXXXXXXXXXXX   XXXXXXXXXXXXXXXXXXXXXXXXXXXXX   ",
"XXXXXXXXXXXXXXXXXXXXXXXXXXXX    XXXXXXXXXXXXXXXXXXXXXXXXXXXX    ",
"XXXXXXXXXXXXXXXXXXXXXXXXXXX     XXXXXXXXXXXXXXXXXXXXXXXXXXX     ",
"XXXXXXXXXXXXXXXXXXXXXXXXXX      XXXXXXXXXXXXXXXXXXXXXXXXXX      ",
"XXXXXXXXXXXXXXXXXXXXXXXXX       XXXXXXXXXXXXXXXXXXXXXXXXX       ",
"XXXXXXXXXXXXXXXXXXXXXXXX        XXXXXXXXXXXXXXXXXXXXXXXX        ",
"XXXXXXXX................        XXXXXXXX................        ",
"XXXXXXXX................        XXXXXXXX................        ",
"XXXXXXXX................        XXXXXXXX................        ",
"XXXXXXXX................        XXXXXXXX................        ",
"XXXXXXXX................        XXXXXXXX................        ",
"XXXXXXXX................        XXXXXXXX................        ",
"XXXXXXXX................        XXXXXXXX................        ",
"XXXXXXXX................        XXXXXXXX................        ",
"XXXXXXXX................        XXXXXXXX................        ",
"XXXXXXXX................        XXXXXXXX................        ",
"XXXXXXXX................        XXXXXXXX................        ",
"XXXXXXXX................        XXXXXXXX................        ",
"XXXXXXXX................        XXXXXXXX................        ",
"XXXXXXXX................        XXXXXXXX................        ",
"XXXXXXXX................        XXXXXXXX................        ",
"XXXXXXXX................        XXXXXXXX................        ",
"XXXXXXX                         XXXXXXX                         ",
"XXXXXX                          XXXXXX                          ",
"XXXXX                           XXXXX                           ",
"XXXX                            XXXX                            ",
"XXX                             XXX                             ",
"XX                              XX                              ",
"X                               X                               ",
"                                                                "
};
