/* XPM */
static char *ebaa280661ee4569f5cc4c0713cf1309sSrLZRfMeRdTVJxJ[] = {
/* columns rows colors chars-per-pixel */
"64 64 6 1 ",
"  c #000008",
". c #434343",
"X c gray39",
"o c gray53",
"O c #A7A7A7",
"+ c #FFFFFE",
/* pixels */
"oooooooooooooooX                                oooooooooooooooX",
"oXXXXXXXXXXXXXX.                                oXXXXXXXXXXXXXX.",
"oXXXXXXXXXXXXXX.                                oXXXXXXXXXXXXXX.",
"oXXXXXXXXXXXXXX.                                oXXXXXXXXXXXXXX.",
"oXXXXXXXXXXXXXX.                                oXXXXXXXXXXXXXX.",
"oXXXXXXXXXXXXXX.                                oXXXXXXXXXXXXXX.",
"oXXXXXXXXXXXXXX.                                oXXXXXXXXXXXXXX.",
"oXXXXXXXXXXXXXX.                                oXXXXXXXXXXXXXX.",
"oXXXXXXXXXXXXXX.                                oXXXXXXXXXXXXXX.",
"oXXXXXXXXXXXXXX.                                oXXXXXXXXXXXXXX.",
"X...............                                X...............",
"oooooooooooooooX                                oooooooooooooooX",
"oXXXXXXXXXXXXXX.        O++++++++++++++O        oXXXXXXXXXXXXXX.",
"oXXXXXXXXXXXXXX.        ++++++++++++++++        oXXXXXXXXXXXXXX.",
"oXXXXXXXXXXXXXX.        ++++++++++++++++        oXXXXXXXXXXXXXX.",
"oXXXXXXXXXXXXXX.        ++++++++++++++++        oXXXXXXXXXXXXXX.",
"X...............        ++++++++++++++++        X...............",
"oooooooooooooooX        ++++++++++++++++        oooooooooooooooX",
"oXXXXXXXXXXXXXX.        ++++++++++++++++        oXXXXXXXXXXXXXX.",
"oXXXXXXXXXXXXXX.        O++++++++++++++O        oXXXXXXXXXXXXXX.",
"oXXXXXXXXXXXXXX.                                oXXXXXXXXXXXXXX.",
"oXXXXXXXXXXXXXX.                                oXXXXXXXXXXXXXX.",
"X...............                                X...............",
"oooooooooooooooX                                oooooooooooooooX",
"oXXXXXXXXXXXXXX.                                oXXXXXXXXXXXXXX.",
"oXXXXXXXXXXXXXX.                                oXXXXXXXXXXXXXX.",
"oXXXXXXXXXXXXXX.                                oXXXXXXXXXXXXXX.",
"oXXXXXXXXXXXXXX.                                oXXXXXXXXXXXXXX.",
"X...............        O++++++++++++++O        X...............",
"oooooooooooooooX        ++++++++++++++++        oooooooooooooooX",
"oXXXXXXXXXXXXXX.        ++++++++++++++++        oXXXXXXXXXXXXXX.",
"oXXXXXXXXXXXXXX.        ++++++++++++++++        oXXXXXXXXXXXXXX.",
"oXXXXXXXXXXXXXX.        ++++++++++++++++        oXXXXXXXXXXXXXX.",
"oXXXXXXXXXXXXXX.        ++++++++++++++++        oXXXXXXXXXXXXXX.",
"X...............        ++++++++++++++++        X...............",
"oooooooooooooooX        O++++++++++++++O        oooooooooooooooX",
"oXXXXXXXXXXXXXX.                                oXXXXXXXXXXXXXX.",
"oXXXXXXXXXXXXXX.                                oXXXXXXXXXXXXXX.",
"oXXXXXXXXXXXXXX.                                oXXXXXXXXXXXXXX.",
"oXXXXXXXXXXXXXX.                                oXXXXXXXXXXXXXX.",
"X...............                                X...............",
"oooooooooooooooX                                oooooooooooooooX",
"oXXXXXXXXXXXXXX.                                oXXXXXXXXXXXXXX.",
"oXXXXXXXXXXXXXX.                                oXXXXXXXXXXXXXX.",
"oXXXXXXXXXXXXXX.        O++++++++++++++O        oXXXXXXXXXXXXXX.",
"oXXXXXXXXXXXXXX.        ++++++++++++++++        oXXXXXXXXXXXXXX.",
"X...............        ++++++++++++++++        X...............",
"oooooooooooooooX        ++++++++++++++++        oooooooooooooooX",
"oXXXXXXXXXXXXXX.        ++++++++++++++++        oXXXXXXXXXXXXXX.",
"oXXXXXXXXXXXXXX.        ++++++++++++++++        oXXXXXXXXXXXXXX.",
"oXXXXXXXXXXXXXX.        ++++++++++++++++        oXXXXXXXXXXXXXX.",
"oXXXXXXXXXXXXXX.        O++++++++++++++O        oXXXXXXXXXXXXXX.",
"X...............                                X...............",
"oooooooooooooooX                                oooooooooooooooX",
"oXXXXXXXXXXXXXX.                                oXXXXXXXXXXXXXX.",
"oXXXXXXXXXXXXXX.                                oXXXXXXXXXXXXXX.",
"oXXXXXXXXXXXXXX.                                oXXXXXXXXXXXXXX.",
"oXXXXXXXXXXXXXX.                                oXXXXXXXXXXXXXX.",
"oXXXXXXXXXXXXXX.                                oXXXXXXXXXXXXXX.",
"oXXXXXXXXXXXXXX.                                oXXXXXXXXXXXXXX.",
"oXXXXXXXXXXXXXX.                                oXXXXXXXXXXXXXX.",
"oXXXXXXXXXXXXXX.                                oXXXXXXXXXXXXXX.",
"oXXXXXXXXXXXXXX.                                oXXXXXXXXXXXXXX.",
"X...............                                X..............."
};
